<svg xmlns="http://www.w3.org/2000/svg" viewBox="0 0 244 120"><path d="m0 0h244v120h-244z" fill="#152332" opacity=".004"></path><g fill="#161a1f"><path d="m19.142 58.219-.14.249c-.166.308-.195.39-.672.476-1.089.225-1.338.643-1.338 2.155v12.983c0 1.793 0 1.793 1.788 2.264.2.06.279.171.279.256s0 .139-.056.193l-.11.281c-.113.28-.2.308-.676.308h-5.538c-.446 0-.559-.028-.559-.193a1.082 1.082 0 0 1 .053-.229l.113-.274c.114-.306.2-.366.673-.449 1.062-.2 1.345-.643 1.345-2.158v-6.743h-9.404v6.744c0 1.793 0 1.793 1.793 2.264.2.06.28.171.28.256a.852.852 0 0 1 -.054.193l-.114.281c-.112.28-.225.308-.7.308h-5.514c-.449 0-.591-.057-.591-.193a.961.961 0 0 1 .058-.229l.113-.274c.112-.306.2-.366.671-.449 1.089-.228 1.342-.616 1.342-2.158v-12.981c0-1.4-.028-1.568-.39-1.818-.17-.111-.2-.14-1.4-.448-.2-.057-.279-.142-.279-.224a.888.888 0 0 1 .056-.25l.112-.26c.111-.28.165-.308.671-.308h5.541c.446 0 .587.028.587.195a.934.934 0 0 1 -.055.228l-.11.249c-.142.308-.226.39-.706.476-1.09.225-1.313.62-1.313 2.155v4.73h9.402v-4.725c0-1.345-.057-1.568-.393-1.818-.166-.111-.195-.14-1.4-.448-.2-.057-.28-.142-.28-.224a.421.421 0 0 1 .053-.25l.12-.26c.113-.28.167-.308.672-.308h5.54c.447 0 .588.028.588.195a.878.878 0 0 1 -.057.228" transform="translate(27.004 4.194)"></path><path d="m41.369 77.521-.2.393c-.111.167-.221.223-.559.223h-4.81c-.28 0-.391-.057-.391-.167a.21.21 0 0 1 .028-.113l.14-.337a.571.571 0 0 1 .393-.363c.556-.195.752-.366.752-.7 0-.141 0-.17-.308-.952l-.814-2.069h-6.239l-.949 2.494a1.6 1.6 0 0 0 -.17.554c0 .282.336.531.813.646.25.082.392.2.392.308a.393.393 0 0 1 -.057.14l-.168.306c-.111.226-.223.254-.586.254h-3.5c-.423 0-.59-.057-.59-.223v-.056l.137-.337c.113-.252.2-.363.616-.446 1.011-.2 1.209-.391 1.711-1.6l3.943-9.43a2.732 2.732 0 0 0 .279-1.035c0-.559-.529-1.038-1.451-1.232-.283-.056-.423-.168-.423-.28a.484.484 0 0 1 .028-.14l.114-.359c.06-.226.141-.253.669-.253h3.22c.45 0 .591.087.755.529 1.57 4.092 2.464 6.271 4.564 11.113q.339.754.672 1.595c.278.7.476.869 1.455 1.062.39.085.56.2.56.365a.17.17 0 0 1 -.027.111m-8.928-12-2.632 6.689h5.292z" transform="translate(23.272 3.397)"></path><path d="m50.408 78.411a11.194 11.194 0 0 1 -3.638-.587c-.421-.109-.475-.22-.475-.782v-2.153c0-.448.029-.531.194-.587l.389-.141a1.487 1.487 0 0 1 .255-.086c.109 0 .109.058.363.814a2.953 2.953 0 0 0 3.024 2.294 2.811 2.811 0 0 0 3.107-2.716c0-1.342-.73-2.209-3.554-3.972-2.661-1.655-3.391-2.6-3.391-4.2 0-2.321 2.158-3.943 5.266-3.943a6.629 6.629 0 0 1 3.022.666c.445.2.531.313.531.732v1.205c0 .443-.029.474-.251.641l-.308.256a.485.485 0 0 1 -.2.077c-.113 0-.113-.024-.559-.807a2.508 2.508 0 0 0 -2.483-1.54c-1.455 0-2.518.813-2.518 1.956a2.08 2.08 0 0 0 .643 1.4 12.783 12.783 0 0 0 2.739 2.013c2.8 1.823 3.7 3.133 3.7 4.925 0 2.747-2.349 4.532-5.847 4.532" transform="translate(20.639 3.45)"></path><path d="m64.755 78.411a11.18 11.18 0 0 1 -3.636-.587c-.42-.109-.477-.22-.477-.782v-2.153c0-.448.03-.531.2-.587l.388-.141a1.377 1.377 0 0 1 .253-.086c.113 0 .113.058.365.814a2.948 2.948 0 0 0 3.021 2.294 2.812 2.812 0 0 0 3.107-2.716c0-1.342-.728-2.209-3.556-3.972-2.659-1.655-3.384-2.6-3.384-4.2 0-2.321 2.153-3.943 5.261-3.943a6.616 6.616 0 0 1 3.02.666c.446.2.53.313.53.731v1.205c0 .443-.025.474-.248.641l-.311.256a.479.479 0 0 1 -.195.077c-.111 0-.111-.024-.558-.806a2.51 2.51 0 0 0 -2.491-1.541c-1.455 0-2.517.813-2.517 1.956a2.091 2.091 0 0 0 .642 1.4 12.978 12.978 0 0 0 2.74 2.013c2.8 1.823 3.7 3.133 3.7 4.925 0 2.747-2.353 4.532-5.851 4.532" transform="translate(18.046 3.45)"></path><path d="m90.242 77.521-.2.393c-.111.167-.224.223-.559.223h-4.81c-.281 0-.394-.057-.394-.167a.2.2 0 0 1 .03-.113l.141-.337a.571.571 0 0 1 .39-.363c.559-.195.756-.366.756-.7 0-.141 0-.17-.308-.952l-.813-2.071h-6.241l-.947 2.494a1.675 1.675 0 0 0 -.172.554c0 .282.337.531.813.646.253.082.394.2.394.308a.474.474 0 0 1 -.056.14l-.164.306c-.115.226-.227.254-.593.254h-3.496c-.421 0-.59-.057-.59-.223v-.056l.139-.337c.113-.252.2-.363.619-.446 1.006-.2 1.2-.391 1.705-1.6l3.944-9.43a2.741 2.741 0 0 0 .281-1.035c0-.559-.532-1.038-1.455-1.232-.285-.056-.423-.168-.423-.28a.437.437 0 0 1 .032-.14l.107-.357c.062-.226.145-.253.677-.253h3.22c.443 0 .583.087.753.529 1.568 4.092 2.461 6.271 4.56 11.113q.334.754.671 1.595c.279.7.477.869 1.457 1.062.391.085.559.2.559.365a.165.165 0 0 1 -.028.111m-8.928-12-2.629 6.689h5.29z" transform="translate(15.654 3.397)"></path><path d="m111.777 63.422c-.082.163-.082.192-.195.25l-.446.138c-.786.248-.95.5-.95 1.736v11.36c0 1.119-.059 1.232-.589 1.232h-.7a.805.805 0 0 1 -.786-.366l-9.737-11.414v8.952c0 1.539 0 1.539 1.514 1.877.165.055.248.14.248.253a.226.226 0 0 1 -.027.111l-.2.338c-.138.22-.2.248-.5.248h-3.834c-.391 0-.474-.028-.474-.248v-.058l.168-.366c.055-.167.085-.223.19-.279l.453-.141c.786-.25.953-.5.953-1.735v-10.325a5 5 0 0 0 -2.38-1.285c-.14-.027-.226-.114-.226-.2a.584.584 0 0 1 .061-.163l.193-.337c.082-.226.2-.249.7-.249h2.6c.727 0 .786-.03 1.763 1.115l9.093 10.634v-8.953c0-1.542 0-1.542-1.507-1.875-.169-.058-.253-.114-.253-.224a.211.211 0 0 1 .028-.111l.2-.337c.141-.226.167-.249.476-.249h3.865c.386 0 .472.024.472.249v.029z" transform="translate(12.853 3.396)"></path><path d="m143.9 76.852-.108.225c-.113.251-.281.308-.841.308h-5.175c-.388 0-.616-.084-.616-.223a.116.116 0 0 1 .024-.085l.147-.364c.083-.223.164-.276.445-.39.671-.253.979-.559.979-.951a4.349 4.349 0 0 0 -.474-1.57l-.893-2.35h-7.642l-1.291 3.33a1.939 1.939 0 0 0 -.14.563c0 .42.4.756 1.037.951.253.083.365.195.365.308a.612.612 0 0 1 -.084.223l-.083.278c-.113.224-.281.281-.758.281h-4.307c-.424 0-.591-.057-.591-.25a.342.342 0 0 1 .031-.173l.137-.307c.112-.22.142-.278.307-.361.227-.055.479-.112.758-.168.843-.25 1.2-.588 1.626-1.737l.335-.811 4.588-11.557a5.225 5.225 0 0 0 .392-1.765c0-.808-.563-1.285-1.793-1.45-.306-.032-.474-.168-.474-.281a.478.478 0 0 1 .056-.14l.087-.256c.136-.305.248-.333.864-.333h3.641c.419 0 .558.059.671.307a22.991 22.991 0 0 1 .81 2.241c1.651 4.673 3.218 8.673 5.038 13.181.893 2.21 1.01 2.351 2.487 2.769.34.052.482.166.482.361a.446.446 0 0 1 -.034.2m-10.32-15.976-3.307 9.036h6.551z" transform="translate(8.41 4.194)"></path><path d="m159.58 78.137h-9.68c-.394 0-.479-.028-.479-.28v-.027l.167-.393c.058-.112.083-.195.2-.252l.446-.14c.785-.255.951-.5.951-1.733v-9.766c0-1.542 0-1.542-1.514-1.878-.164-.055-.249-.111-.249-.223a.229.229 0 0 1 .026-.111l.2-.335c.141-.226.164-.253.472-.253h4.927c.392 0 .5.056.5.168 0 .059 0 .085-.024.112l-.169.395c-.06.137-.086.194-.194.248l-.45.14c-.782.252-.953.506-.953 1.738v8.953a3.129 3.129 0 0 0 .479 2.071c.275.3.365.335 1.6.335h1.482a2.887 2.887 0 0 0 2.852-1.428c.139-.225.252-.31.338-.31a.317.317 0 0 0 .139.028l.364.115c.2.05.225.108.225.363v1.626c0 .724-.169.836-1.648.836" transform="translate(4.961 3.397)"></path><path d="m175.669 78.137h-9.679c-.394 0-.481-.028-.481-.28v-.027l.173-.393c.054-.112.083-.195.2-.252l.443-.14c.787-.255.953-.5.953-1.733v-9.766c0-1.542 0-1.542-1.509-1.878-.169-.055-.256-.111-.256-.223a.2.2 0 0 1 .031-.111l.2-.335c.141-.226.168-.253.474-.253h4.929c.386 0 .5.056.5.168 0 .059 0 .085-.025.112l-.168.395c-.057.137-.086.194-.2.248l-.444.14c-.784.252-.949.506-.949 1.738v8.953a3.106 3.106 0 0 0 .477 2.071c.275.3.36.335 1.593.335h1.469a2.9 2.9 0 0 0 2.859-1.428c.137-.225.247-.31.333-.31a.314.314 0 0 0 .137.028l.362.115c.2.05.227.108.227.363v1.626c0 .724-.169.836-1.652.836" transform="translate(3.049 3.397)"></path><path d="m197.636 77.521-.2.393c-.108.166-.221.223-.558.223h-4.81c-.281 0-.394-.057-.394-.167a.214.214 0 0 1 .028-.113l.143-.337a.564.564 0 0 1 .389-.363c.562-.195.754-.366.754-.7 0-.141 0-.17-.309-.952l-.809-2.071h-6.241l-.947 2.494a1.6 1.6 0 0 0 -.174.554c0 .282.338.531.815.646.252.082.386.2.386.308a.4.4 0 0 1 -.052.14l-.166.306c-.116.226-.223.254-.588.254h-3.5c-.415 0-.581-.057-.581-.223v-.056l.135-.337c.115-.252.193-.363.618-.446 1.006-.2 1.2-.391 1.708-1.6l3.942-9.43a2.721 2.721 0 0 0 .281-1.035c0-.559-.528-1.038-1.455-1.232-.279-.056-.42-.168-.42-.28a.475.475 0 0 1 .029-.14l.113-.363c.052-.226.137-.253.673-.253h3.218c.445 0 .589.087.754.529 1.567 4.092 2.462 6.271 4.561 11.113q.336.754.672 1.595c.281.7.477.869 1.455 1.062.392.085.56.2.56.365a.157.157 0 0 1 -.03.111m-8.929-12-2.627 6.684h5.29z" transform="translate(1.355 3.397)"></path><path d="m222.81 63.026-.139.395c-.11.222-.14.252-.673.388-.895.227-1.088.535-1.088 1.738v9.763c0 1.541.028 1.541 1.506 1.879.17.053.255.138.255.249a.172.172 0 0 1 -.028.112l-.2.334c-.139.226-.167.254-.474.254h-4.927c-.389 0-.5-.028-.5-.254v-.053l.2-.366c.054-.167.081-.223.2-.276l.446-.143c.843-.253.953-.475.953-1.735l.026-8.811-5.6 10.939c-.308.618-.364.7-.559.7h-.338c-.247 0-.386-.113-.582-.53l-5.435-11.109.028 8.811c0 1.513.029 1.541 1.511 1.879.169.053.254.138.254.249a.168.168 0 0 1 -.029.112l-.169.334c-.136.226-.2.254-.5.254h-3.859c-.394 0-.479-.028-.479-.254v-.053l.171-.366c.053-.167.081-.223.2-.276l.446-.143c.756-.223.951-.5.951-1.735v-10.326a3.4 3.4 0 0 0 -1.9-1.2c-.451-.111-.586-.171-.586-.308a.369.369 0 0 1 .053-.142l.2-.308c.14-.276.14-.276.7-.276h2.857c.949 0 .975 0 1.648 1.37l5.319 10.828 5.747-11.25c.45-.841.56-.949 1.4-.949h2.521c.387 0 .5.053.5.193a.1.1 0 0 1 -.03.083" transform="translate(-1.846 3.396)"></path></g><path d="m103.752 13.947v27.1l3.353-1.6v-27.925z" fill="#bdb8af" transform="translate(10.361 13.257)"></path><path d="m100.4 7.293 2.844 6.011v27.096l-2.844-1.6z" fill="#a8a198" transform="translate(10.971 13.9)"></path><path d="m100.4 7.293 2.714 6.063.138 27 .017-27 3.327-2.475-3.396 2.31z" fill="#fff" transform="translate(10.921 13.9)"></path><path d="m107.107 11.522s-3.357 7.873-3.357 29.519l3.357-1.6z" fill="#e4e2dc" transform="translate(10.361 13.257)"></path><path d="m107.1 11.522-3.381 2.461.037 27.017.017-27z" fill="#8e867f" transform="translate(10.366 13.257)"></path><path d="m112.6 6.621v28.952l3.352-1.6v-29.907z" fill="#bdb8af" transform="translate(8.772 14.391)"></path><path d="m109.258 0 2.83 6v28.957l-2.837-1.6z" fill="#a8a198" transform="translate(9.381 15.009)"></path><path d="m109.259.006 2.711 6.066.13 28.844.014-28.861 3.327-2.607-3.393 2.442z" fill="#fff" transform="translate(9.325 15.008)"></path><path d="m115.948 4.066s-3.352 9.86-3.352 31.507l3.354-1.6z" fill="#e4e2dc" transform="translate(8.772 14.391)"></path><path d="m115.943 4.066-3.377 2.589.036 28.878.014-28.86z" fill="#8e867f" transform="translate(8.777 14.391)"></path><path d="m121.447 16.207v28.953l-3.355-1.6v-29.848z" fill="#bdb8af" transform="translate(7.784 12.924)"></path><path d="m124.889 9.645-2.84 5.944v28.952l2.84-1.6z" fill="#a8a198" transform="translate(7.082 13.543)"></path><path d="m124.287 9.645-2.712 6-.135 28.855-.017-28.859-3.331-2.548 3.4 2.383z" fill="#fff" transform="translate(7.734 13.543)"></path><path d="m118.092 13.711s3.355 9.8 3.355 31.449l-3.355-1.6z" fill="#e4e2dc" transform="translate(7.784 12.924)"></path><path d="m118.092 13.711 3.381 2.53-.036 28.878-.019-28.861z" fill="#8e867f" transform="translate(7.784 12.924)"></path><path d="m103.184 13.238 3.414-2.356-6.198-3.591z" fill="#f4f3f1" transform="translate(10.92 13.901)"></path><path d="m112.046 5.917 3.394-2.472-6.181-3.445z" fill="#f9f9f8" transform="translate(9.325 15.009)"></path><path d="m118.1 13.1 3.411 2.435 2.781-5.893z" fill="#f4f3f1" transform="translate(7.734 13.544)"></path><path d="m54.892 94.5h.951v2.691h3.681v-2.691h.937v6.5h-.937v-3.007h-3.681v3.007h-.951z" fill="#161a1f" transform="translate(19.122 -2.139)"></path><path d="m79.973 97.738a2.392 2.392 0 1 0 -2.385 2.564 2.358 2.358 0 0 0 2.385-2.564m-5.774 0a3.388 3.388 0 1 1 3.4 3.351 3.268 3.268 0 0 1 -3.4-3.351" fill="#161a1f" transform="translate(15.633 -2.11)"></path><path d="m94.93 94.5h.97v5.711h2.778v.789h-3.748z" fill="#161a1f" transform="translate(11.941 -2.139)"></path><path d="m113.513 100.229c1.854 0 2.843-.8 2.843-2.529 0-1.748-.927-2.434-2.894-2.434h-.732v4.963zm-1.739-5.729h1.712c2.679 0 3.859 1.246 3.859 3.161s-1.192 3.339-3.91 3.339h-1.66z" fill="#161a1f" transform="translate(8.883 -2.139)"></path><path d="m136.617 92.365h.952v6.497h-.952z" fill="#161a1f"></path><path d="m145.472 94.5h.962l3.034 4.163a11.553 11.553 0 0 1 .649 1.052h.022s-.039-.483-.039-.975v-4.24h.867v6.5h-.867l-3.207-4.4a8.7 8.7 0 0 1 -.559-.94h-.012s.039.434.039.813v4.527h-.888z" fill="#161a1f" transform="translate(2.818 -2.139)"></path><path d="m164.672 97.717a3.28 3.28 0 0 1 3.5-3.359 3.424 3.424 0 0 1 2.157.606l-.458.7a2.737 2.737 0 0 0 -1.723-.51 2.3 2.3 0 0 0 -2.475 2.529 2.363 2.363 0 0 0 2.449 2.624 2.743 2.743 0 0 0 1.588-.38v-1.64h-1.433v-.772h2.358v2.867a3.642 3.642 0 0 1 -2.523.708 3.266 3.266 0 0 1 -3.441-3.373" fill="#161a1f" transform="translate(-.649 -2.116)"></path></svg>